<?xml version="1.0" standalone="no"?>
<!DOCTYPE svg PUBLIC "-//W3C//DTD SVG 20010904//EN"
 "http://www.w3.org/TR/2001/REC-SVG-20010904/DTD/svg10.dtd">
<svg version="1.0" xmlns="http://www.w3.org/2000/svg"
 width="593.000000pt" height="593.000000pt" viewBox="0 0 593.000000 593.000000"
 preserveAspectRatio="xMidYMid meet">
<metadata>
Created by potrace 1.14, written by Peter Selinger 2001-2017
</metadata>
<g transform="translate(0.000000,593.000000) scale(0.100000,-0.100000)"
fill="#000000" stroke="none">
<path d="M1908 4845 c-20 -6 -44 -20 -55 -31 -17 -16 -233 -377 -233 -389 0
-4 -83 -146 -120 -205 -5 -8 -18 -31 -28 -50 -11 -19 -125 -217 -254 -440
-289 -499 -347 -600 -374 -647 -12 -21 -68 -119 -126 -218 -232 -400 -250
-433 -243 -454 3 -12 14 -21 23 -22 142 -9 212 0 249 30 17 15 202 320 373
616 10 17 37 64 61 105 23 41 45 77 48 80 3 3 19 30 35 60 16 30 35 62 42 71
8 8 14 19 14 22 0 4 22 44 50 88 28 44 50 82 50 85 0 2 19 34 42 71 22 38 49
83 60 101 46 80 58 102 105 182 28 47 60 101 71 120 11 19 73 125 137 235 65
110 124 209 130 220 35 61 50 82 74 100 25 20 45 20 965 23 577 1 943 -1 949
-7 9 -9 -84 -177 -288 -526 -62 -105 -298 -514 -327 -565 -30 -52 -57 -78 -92
-86 -17 -4 -290 -8 -606 -9 -384 -1 -584 -5 -601 -13 -32 -13 -68 -55 -114
-133 -39 -66 -42 -81 -21 -98 10 -9 208 -12 745 -12 730 -1 731 -1 769 21 21
12 44 31 52 43 12 19 150 258 212 367 32 55 353 612 431 745 38 66 79 136 90
155 28 50 110 192 122 211 30 49 65 120 65 133 0 9 -8 19 -17 25 -29 14 -2422
11 -2465 -4z"/>
<path d="M3870 3396 c-39 -17 -64 -45 -109 -123 -74 -129 -78 -128 263 -128
327 0 335 -4 136 -77 -235 -85 -544 -199 -565 -208 -11 -5 -64 -25 -118 -44
-53 -20 -141 -52 -195 -72 -53 -20 -131 -49 -172 -64 -108 -39 -910 -336 -983
-364 -34 -13 -154 -58 -267 -99 -407 -150 -805 -298 -826 -306 -19 -8 -27 -3
-60 39 -97 120 -252 189 -411 181 -162 -7 -307 -93 -397 -234 -49 -78 -68
-141 -72 -242 -6 -161 44 -282 165 -393 222 -202 587 -151 749 105 26 41 29
43 77 43 50 1 3614 0 3711 0 45 0 52 -3 65 -27 72 -139 253 -245 419 -246 230
-1 423 143 490 364 24 79 20 213 -8 292 -113 314 -478 438 -750 255 -98 -67
-190 -199 -208 -298 -3 -19 -7 -42 -9 -50 -2 -8 -4 -18 -4 -21 -1 -10 -323
-12 -1566 -12 -1659 1 -2005 4 -2005 19 0 6 8 15 18 19 24 9 190 71 297 110
50 18 214 78 365 134 151 57 313 116 360 133 47 16 94 34 105 38 11 5 106 41
210 79 105 38 202 74 215 80 14 5 162 60 330 121 168 62 382 140 475 175 94
35 238 88 320 118 83 31 274 101 425 157 151 56 349 128 440 161 91 33 174 64
185 69 11 5 108 41 215 80 107 39 204 75 215 80 11 4 69 26 129 47 122 43 152
68 121 103 -17 18 -42 19 -884 18 -617 0 -873 -4 -891 -12z m-3169 -1558 c55
-32 80 -62 102 -116 57 -143 -42 -304 -195 -318 -136 -11 -262 112 -251 245 3
44 30 112 55 141 66 78 200 100 289 48z m4702 -1 c75 -44 119 -120 119 -204
-2 -124 -94 -221 -222 -230 -103 -8 -209 70 -235 173 -14 57 -3 133 27 182 62
102 208 139 311 79z"/>
<path d="M568 1737 c-2 -7 -3 -27 -3 -44 1 -32 0 -33 -43 -33 -39 0 -43 -2
-40 -22 2 -18 10 -23 33 -23 43 -1 55 -12 52 -47 -1 -24 3 -32 21 -39 21 -8
22 -6 22 36 0 48 -1 47 68 48 16 0 22 6 22 23 0 22 -4 24 -45 24 l-45 0 0 43
c0 35 -3 43 -19 44 -11 1 -21 -4 -23 -10z"/>
<path d="M5180 1634 c0 -22 1 -23 108 -21 100 2 107 3 110 23 3 20 -2 20 -108
21 -108 1 -110 0 -110 -23z"/>
</g>
</svg>
